#!OML:ASF I:\Actors\actors\Patient Classification 2\Patient 1\Session 1\actor1.ASF
:FULLY-SPECIFIED
:DEGREES
187
root -0.641053 18.7497 4.56596 2.56255 -2.77279 -1.29693
lowerback 1.72809 -0.17203 -1.62699
upperback -3.11172 -0.253045 1.07262
thorax -4.1636 -0.055511 2.0324
lowerneck -13.0645 -1.41441 -1.81147
upperneck 24.7308 -2.52595 3.57075
head 10.0913 -0.932816 1.24775
rclavicle -5.37029e-015 -2.95692e-015
rhumerus -54.9583 -4.65002 -80.0936
rradius 48.4182
rwrist 13.3667
rhand -2.88173 -40.2934
rfingers 7.12502
rthumb 22.8275 -68.9626
lclavicle -5.37029e-015 -2.95692e-015
lhumerus 10.2502 -18.838 63.1943
lradius 98.2281
lwrist 62.686
lhand -18.5074 -18.1604
lfingers 7.12502
lthumb 7.78065 11.6765
rfemur 0 0 0
rtibia 0
rfoot 0 0
rtoes 0
lfemur -5.3845 -6.91854 -13.7066
ltibia 20.9232
lfoot -22.1092 12.401
ltoes -54.6082
188
root -0.640245 18.7492 4.57416 2.57085 -2.79144 -1.31577
lowerback 1.68465 -0.16418 -1.60307
upperback -3.11765 -0.241166 1.07086
thorax -4.1457 -0.0505451 2.01627
lowerneck -13.0908 -1.40658 -1.82857
upperneck 24.8057 -2.51975 3.59562
head 10.1238 -0.927794 1.26069
rclavicle -3.65267e-015 -8.07563e-015
rhumerus -54.9844 -4.604 -80.1789
rradius 48.4481
rwrist 12.8517
rhand -3.68997 -40.6289
rfingers 7.12502
rthumb 22.0516 -69.3917
lclavicle -3.65267e-015 -8.07563e-015
lhumerus 10.2533 -18.77 63.2801
lradius 98.1313
lwrist 62.9447
lhand -18.7749 -17.9969
lfingers 7.12502
lthumb 7.52245 11.8493
rfemur 0 0 0
rtibia 0
rfoot 0 0
rtoes 0
lfemur -5.35972 -6.95514 -13.7004
ltibia 20.9274
lfoot -22.1876 12.4243
ltoes -54.5838
189
root -0.638263 18.7488 4.58171 2.57196 -2.81136 -1.30593
lowerback 1.66599 -0.161544 -1.61222
upperback -3.12215 -0.237568 1.07605
thorax -4.13994 -0.0484 2.0265
lowerneck -13.107 -1.39276 -1.80072
upperneck 24.8341 -2.49325 3.54071
head 10.1352 -0.918878 1.24005
rclavicle 1.36323e-014 7.45443e-016
rhumerus -54.9485 -4.562 -80.2074
rradius 48.4366
rwrist 12.6037
rhand -4.08713 -40.7247
rfingers 7.12502
rthumb 21.6703 -69.532
lclavicle 1.36323e-014 7.45443e-016
lhumerus 10.2185 -18.6284 63.3717
lradius 98.1517
lwrist 63.2293
lhand -19.0546 -17.5636
lfingers 7.12502
lthumb 7.25243 12.2921
rfemur 0 0 0
rtibia 0
rfoot 0 0
rtoes 0
lfemur -5.33004 -6.9981 -13.7324
ltibia 20.9306
lfoot -22.2496 12.4772
ltoes -54.6254
190
root -0.636534 18.7479 4.58929 2.55923 -2.82841 -1.30354
lowerback 1.66646 -0.151192 -1.61715
upperback -3.12248 -0.223496 1.08768
thorax -4.14119 -0.0410137 2.04057
lowerneck -13.1082 -1.39976 -1.7648
upperneck 24.8276 -2.48913 3.45577
head 10.1314 -0.923434 1.2044
rclavicle -7.98866e-015 7.37988e-015
rhumerus -54.8988 -4.53319 -80.1927
rradius 48.4365
rwrist 12.5975
rhand -3.94824 -40.7066
rfingers 7.12502
rthumb 21.8037 -69.4984
lclavicle -7.98866e-015 7.37988e-015
lhumerus 10.2069 -18.4417 63.4645
lradius 98.2655
lwrist 63.5164
lhand -19.1408 -16.926
lfingers 7.12502
lthumb 7.16921 12.9325
rfemur 0 0 0
rtibia 0
rfoot 0 0
rtoes 0
lfemur -5.28228 -6.96974 -13.7468
ltibia 20.929
lfoot -22.2882 12.4725
ltoes -54.5924
191
root -0.635765 18.7469 4.59651 2.52805 -2.85551 -1.31694
lowerback 1.66229 -0.137882 -1.62374
upperback -3.10319 -0.205153 1.10778
thorax -4.1196 -0.0317182 2.06397
lowerneck -13.1023 -1.4072 -1.76464
upperneck 24.7991 -2.48994 3.42271
head 10.1195 -0.927864 1.19241
rclavicle 2.08569e-015 6.36111e-015
rhumerus -54.8431 -4.45645 -80.2058
rradius 48.4549
rwrist 12.5366
rhand -3.84736 -40.699
rfingers 7.12502
rthumb 21.9005 -69.4795
lclavicle 2.08569e-015 6.36111e-015
lhumerus 10.2483 -18.1691 63.5645
lradius 98.3968
lwrist 63.8346
lhand -18.9086 -16.0213
lfingers 7.12502
lthumb 7.3934 13.8295
rfemur 0 0 0
rtibia 0
rfoot 0 0
rtoes 0
lfemur -5.20364 -6.91955 -13.7411
ltibia 20.9125
lfoot -22.2908 12.4592
ltoes -54.5726
192
root -0.635175 18.7458 4.60219 2.5003 -2.88499 -1.31157
lowerback 1.65798 -0.131967 -1.64735
upperback -3.08508 -0.197825 1.11432
thorax -4.09866 -0.0275959 2.08349
lowerneck -13.055 -1.38897 -1.77618
upperneck 24.7377 -2.46628 3.44833
head 10.0879 -0.916021 1.20616
rclavicle 7.58954e-015 3.8763e-015
rhumerus -54.8202 -4.4302 -80.2153
rradius 48.5386
rwrist 12.4886
rhand -3.89848 -40.6478
rfingers 7.12502
rthumb 21.8514 -69.434
lclavicle 7.58954e-015 3.8763e-015
lhumerus 10.3109 -17.8821 63.6214
lradius 98.4847
lwrist 64.1922
lhand -18.5987 -15.1191
lfingers 7.12502
lthumb 7.69249 14.721
rfemur 0 0 0
rtibia 0
rfoot 0 0
rtoes 0
lfemur -5.13773 -6.89213 -13.7569
ltibia 20.902
lfoot -22.278 12.4659
ltoes -54.6225
